<?xml version="1.0" encoding="utf-8"?>
<!-- Generator: Adobe Illustrator 19.2.1, SVG Export Plug-In . SVG Version: 6.00 Build 0)  -->
<svg version="1.1" id="Layer_1" xmlns="http://www.w3.org/2000/svg" xmlns:xlink="http://www.w3.org/1999/xlink" x="0px" y="0px"
	 viewBox="0 0 500 500" enable-background="new 0 0 500 500" xml:space="preserve">
<rect x="-13.02" stroke="#000000" stroke-miterlimit="10" width="513.02" height="500"/>
<g>
	<polygon id="XMLID_10_" fill="#00C1C1" points="303.996,432.307 135.505,432.307 104.492,358.282 194.615,326.794 112.303,250.006 
		196.825,173.771 104.492,141.73 135.505,67.44 303.996,67.44 395.4,249.94 	"/>
	<linearGradient id="XMLID_12_" gradientUnits="userSpaceOnUse" x1="253.8517" y1="175.0603" x2="253.8517" y2="250.884">
		<stop  offset="0" style="stop-color:#00C7C7"/>
		<stop  offset="1" style="stop-color:#00B5B5"/>
	</linearGradient>
	<polygon id="XMLID_9_" fill="url(#XMLID_12_)" points="112.303,250.006 395.4,249.94 196.825,173.771 	"/>
	<linearGradient id="XMLID_13_" gradientUnits="userSpaceOnUse" x1="214.5709" y1="131.2397" x2="260.2262" y2="214.6068">
		<stop  offset="0" style="stop-color:#009999"/>
		<stop  offset="1" style="stop-color:#005454"/>
	</linearGradient>
	<polygon id="XMLID_8_" fill="url(#XMLID_13_)" points="395.4,249.94 228.865,141.73 104.492,141.73 196.825,173.771 	"/>
	<linearGradient id="XMLID_14_" gradientUnits="userSpaceOnUse" x1="109.2019" y1="123.1253" x2="302.5639" y2="74.0054">
		<stop  offset="0" style="stop-color:#00C7C7"/>
		<stop  offset="0.3542" style="stop-color:#00C1C1"/>
		<stop  offset="0.8307" style="stop-color:#00B0B0"/>
		<stop  offset="1" style="stop-color:#00A8A8"/>
	</linearGradient>
	<polygon id="XMLID_7_" fill="url(#XMLID_14_)" points="228.865,141.73 104.492,141.73 135.505,67.44 303.996,67.44 	"/>
	<linearGradient id="XMLID_15_" gradientUnits="userSpaceOnUse" x1="343.8419" y1="148.8246" x2="313.6148" y2="193.638">
		<stop  offset="0.85" style="stop-color:#007878"/>
		<stop  offset="0.898" style="stop-color:#007272"/>
		<stop  offset="0.9596" style="stop-color:#006262"/>
		<stop  offset="1" style="stop-color:#005454"/>
	</linearGradient>
	<polygon id="XMLID_6_" fill="url(#XMLID_15_)" points="228.865,141.73 303.996,67.44 395.4,249.94 	"/>
	<linearGradient id="XMLID_16_" gradientUnits="userSpaceOnUse" x1="312.1328" y1="142.7697" x2="312.1328" y2="253.4313">
		<stop  offset="0" style="stop-color:#006B6B"/>
		<stop  offset="1" style="stop-color:#007878"/>
	</linearGradient>
	<polygon id="XMLID_5_" opacity="0.9" fill="url(#XMLID_16_)" points="395.4,249.94 228.865,249.874 228.865,141.73 	"/>
	<linearGradient id="XMLID_17_" gradientUnits="userSpaceOnUse" x1="127.9309" y1="375.5598" x2="393.3066" y2="256.3208">
		<stop  offset="0" style="stop-color:#007878"/>
		<stop  offset="1" style="stop-color:#005454"/>
	</linearGradient>
	<polygon id="XMLID_4_" fill="url(#XMLID_17_)" points="395.4,249.94 228.865,358.15 104.492,358.15 196.825,326.109 	"/>
	<linearGradient id="XMLID_18_" gradientUnits="userSpaceOnUse" x1="110.0737" y1="364.0987" x2="293.1777" y2="443.3109">
		<stop  offset="0" style="stop-color:#00C7C7"/>
		<stop  offset="0.429" style="stop-color:#00B8B8"/>
		<stop  offset="1" style="stop-color:#00A8A8"/>
	</linearGradient>
	<polygon id="XMLID_3_" fill="url(#XMLID_18_)" points="228.865,358.15 104.492,358.15 135.505,432.44 303.996,432.44 	"/>
	<linearGradient id="XMLID_19_" gradientUnits="userSpaceOnUse" x1="369.1114" y1="388.5189" x2="311.1779" y2="302.6291">
		<stop  offset="0.85" style="stop-color:#007878"/>
		<stop  offset="0.898" style="stop-color:#007272"/>
		<stop  offset="0.9596" style="stop-color:#006262"/>
		<stop  offset="1" style="stop-color:#005454"/>
	</linearGradient>
	<polygon id="XMLID_2_" fill="url(#XMLID_19_)" points="228.865,358.15 303.996,432.44 395.4,249.94 	"/>
	<polygon id="XMLID_1_" opacity="0.9" fill="#007C7C" points="395.4,249.94 228.865,250.006 228.865,358.15 	"/>
</g>
</svg>
