<?xml version="1.0" encoding="utf-8"?>
<!-- Generator: Adobe Illustrator 19.2.1, SVG Export Plug-In . SVG Version: 6.00 Build 0)  -->
<svg version="1.1" id="Layer_1" xmlns="http://www.w3.org/2000/svg" xmlns:xlink="http://www.w3.org/1999/xlink" x="0px" y="0px"
	 viewBox="0 0 500 500" enable-background="new 0 0 500 500" xml:space="preserve">
<g>
	<rect x="-14" y="-4" stroke="#000000" stroke-miterlimit="10" width="518" height="507"/>
</g>
<polygon id="XMLID_3_" fill="#CCCCCC" points="162.746,266.54 162.746,229.143 167.584,229.143 190.469,259.269 190.469,229.143 
	195.044,229.143 195.044,266.54 190.207,266.54 167.324,236.15 167.324,266.54 "/>
<path id="XMLID_4_" fill="#CCCCCC" d="M232.179,265.076c-3.015,1.153-6.268,1.727-9.755,1.727c-13.545,0-20.32-6.494-20.32-19.483
	c0-12.292,6.538-18.439,19.612-18.439c3.751,0,7.239,0.525,10.462,1.572v4.184c-3.224-1.221-6.538-1.832-9.939-1.832
	c-10.198,0-15.295,4.84-15.295,14.515c0,10.373,5.018,15.562,15.063,15.562c1.602,0,3.38-0.21,5.334-0.63v-12.709h4.837
	L232.179,265.076z"/>
<path id="XMLID_5_" fill="#CCCCCC" d="M239.895,252.105v-22.96h4.835v22.96c0,7.183,3.575,10.779,10.725,10.779
	c7.147,0,10.723-3.596,10.723-10.779v-22.96h4.837v22.96c0,9.802-5.186,14.7-15.56,14.7
	C245.081,266.805,239.895,261.906,239.895,252.105z"/>
<polygon id="XMLID_6_" fill="#CCCCCC" points="284.482,229.143 284.482,262.619 304.048,262.619 304.048,266.54 279.647,266.54 
	279.647,229.143 "/>
<polygon id="XMLID_7_" fill="#CCCCCC" points="311.028,266.542 306.008,266.542 324.601,224.21 343.194,266.542 337.834,266.542 
	332.995,254.771 320.628,254.771 321.961,250.853 331.375,250.853 324.393,233.904 "/>
<path id="XMLID_8_" fill="#CCCCCC" d="M348.295,266.54v-37.398h15.953c7.115,0,10.67,2.991,10.67,8.969
	c0,4.866-3.476,8.467-10.434,10.8l12.84,17.628h-6.381l-11.897-16.815v-3.162c7.147-1.136,10.72-3.882,10.72-8.239
	c0-3.451-1.987-5.18-5.96-5.18h-10.673v33.397h-4.838L348.295,266.54z"/>
<path id="XMLID_9_" fill="#CCCCCC" d="M395.449,229.143v26.624c0,7.183-4.228,10.773-12.686,10.773v-3.922
	c5.231,0,7.848-2.287,7.848-6.852v-26.623H395.449z"/>
<path id="XMLID_10_" fill="#CCCCCC" d="M404.079,265.233v-4.446c3.924,1.395,8.159,2.094,12.71,2.094
	c6.434,0,9.651-2.354,9.651-7.065c0-4.004-2.373-6.014-7.115-6.014h-4.814c-7.827,0-11.744-3.398-11.744-10.198
	c0-7.147,5.015-10.725,15.043-10.725c4.357,0,8.41,0.527,12.16,1.572v4.446c-3.751-1.396-7.803-2.094-12.16-2.094
	c-6.801,0-10.2,2.268-10.2,6.801c0,4.008,2.3,6.014,6.901,6.014h4.814c7.965,0,11.952,3.402,11.952,10.197
	c0,7.325-4.829,10.987-14.49,10.987C412.238,266.802,408.003,266.277,404.079,265.233z"/>
<polygon id="XMLID_11_" fill="#333333" points="163.97,265.319 163.97,227.921 168.808,227.921 191.691,258.048 191.691,227.921 
	196.268,227.921 196.268,265.319 191.43,265.319 168.546,234.928 168.546,265.319 "/>
<path id="XMLID_12_" fill="#333333" d="M233.403,263.854c-3.015,1.153-6.267,1.726-9.754,1.726c-13.546,0-20.32-6.493-20.32-19.483
	c0-12.292,6.538-18.439,19.615-18.439c3.748,0,7.236,0.525,10.46,1.572v4.183c-3.224-1.221-6.538-1.832-9.937-1.832
	c-10.198,0-15.297,4.84-15.297,14.515c0,10.374,5.02,15.563,15.063,15.563c1.603,0,3.383-0.209,5.337-0.63v-12.709h4.835
	L233.403,263.854z"/>
<path id="XMLID_13_" fill="#333333" d="M241.118,250.882v-22.963h4.835v22.962c0,7.183,3.576,10.776,10.725,10.776
	c7.147,0,10.722-3.594,10.722-10.776v-22.962h4.837v22.962c0,9.802-5.186,14.697-15.56,14.697
	C246.305,265.579,241.118,260.684,241.118,250.882z"/>
<polygon id="XMLID_14_" fill="#333333" points="285.706,227.919 285.706,261.395 305.269,261.395 305.269,265.317 280.871,265.317 
	280.871,227.919 "/>
<polygon id="XMLID_15_" fill="#333333" points="312.252,265.318 307.231,265.318 325.825,222.984 344.418,265.318 339.056,265.318 
	334.218,253.549 321.849,253.549 323.185,249.627 332.597,249.627 325.616,232.678 "/>
<path id="XMLID_16_" fill="#333333" d="M349.518,265.319v-37.398h15.953c7.115,0,10.668,2.989,10.668,8.97
	c0,4.863-3.474,8.466-10.432,10.799l12.841,17.628h-6.384l-11.896-16.815v-3.165c7.147-1.136,10.722-3.879,10.722-8.239
	c0-3.451-1.989-5.177-5.965-5.177h-10.67v33.396H349.518z"/>
<path id="XMLID_17_" fill="#A6120D" d="M396.673,227.919v26.624c0,7.185-4.228,10.773-12.685,10.773v-3.922
	c5.231,0,7.847-2.287,7.847-6.852v-26.624H396.673z"/>
<path id="XMLID_18_" fill="#A6120D" d="M405.301,264.009v-4.445c3.925,1.394,8.159,2.094,12.711,2.094
	c6.433,0,9.651-2.355,9.651-7.064c0-4.006-2.373-6.014-7.115-6.014h-4.813c-7.827,0-11.743-3.4-11.743-10.2
	c0-7.147,5.013-10.724,15.042-10.724c4.357,0,8.411,0.527,12.16,1.572v4.447c-3.751-1.397-7.803-2.094-12.16-2.094
	c-6.801,0-10.2,2.268-10.2,6.801c0,4.008,2.298,6.014,6.901,6.014h4.814c7.965,0,11.952,3.401,11.952,10.2
	c0,7.324-4.828,10.985-14.489,10.985C413.461,265.579,409.225,265.053,405.301,264.009z"/>
<path id="XMLID_22_" d="M351.996,291.1l-1.776-5.401h-1.263l2.451,6.824c-0.057,0.148-0.15,0.374-0.277,0.68
	c-0.128,0.305-0.203,0.473-0.222,0.507c-0.066,0.099-0.147,0.183-0.245,0.251c-0.097,0.068-0.248,0.102-0.453,0.102
	c-0.066,0-0.143-0.007-0.23-0.018c-0.086-0.012-0.227-0.045-0.42-0.099v1.016c0.124,0.033,0.229,0.055,0.312,0.068
	c0.085,0.012,0.206,0.018,0.363,0.018c0.643,0,1.097-0.185,1.36-0.557c0.264-0.371,0.717-1.402,1.361-3.093
	c0.273-0.718,0.61-1.647,1.015-2.786c0.54-1.516,0.889-2.486,1.045-2.911h-1.232L351.996,291.1z M345.401,291.555
	c-0.804,0-1.352-0.365-1.646-1.096c-0.157-0.387-0.235-0.893-0.235-1.516c0-0.862,0.191-1.481,0.575-1.858
	c0.383-0.375,0.829-0.563,1.338-0.563c0.583,0,1.025,0.23,1.326,0.687c0.301,0.458,0.451,1.036,0.451,1.733
	c0,0.784-0.15,1.415-0.451,1.894C346.457,291.316,346.005,291.555,345.401,291.555z M342.497,292.329h1.027v-0.847
	c0.236,0.319,0.457,0.549,0.665,0.694c0.348,0.243,0.774,0.365,1.28,0.365c0.903,0,1.61-0.346,2.12-1.041
	c0.51-0.694,0.764-1.564,0.764-2.612c0-1.106-0.257-1.943-0.774-2.51c-0.516-0.567-1.188-0.851-2.016-0.851
	c-0.398,0-0.766,0.083-1.107,0.251c-0.34,0.167-0.631,0.409-0.876,0.727v-3.299h-1.083L342.497,292.329z"/>
<polygon id="XMLID_23_" fill="#B3B3B3" points="111.177,200.077 67.5,215.448 74.402,272.672 111.224,292.91 148.234,272.398 
	155.134,215.176 "/>
<polygon id="XMLID_24_" fill="#A6120D" points="150.777,218.483 111.075,204.944 111.075,288.074 144.347,269.66 "/>
<polygon id="XMLID_25_" fill="#DD1B16" points="72.401,218.727 78.315,269.905 111.074,288.074 111.074,204.942 "/>
<path id="XMLID_28_" fill="#F2F2F2" d="M122.004,249.198l-10.929,5.11H99.556l-5.415,13.543l-10.071,0.186l27.005-60.076
	L122.004,249.198z M120.947,246.625l-9.8-19.4l-8.038,19.067h7.965L120.947,246.625z"/>
<polygon id="XMLID_29_" fill="#B3B3B3" points="111.074,207.963 111.147,227.225 120.268,246.306 111.095,246.306 111.074,254.297 
	123.758,254.309 129.686,268.041 139.323,268.219 "/>
<g id="XMLID_1_">
	<path id="path2998" d="M378.364,285.056h-8.179v2.427h5.801c-0.286,3.404-3.118,4.855-5.791,4.855c-3.42,0-6.404-2.691-6.404-6.462
		c0-3.674,2.845-6.503,6.411-6.503c2.752,0,4.373,1.754,4.373,1.754l1.699-1.76c0,0-2.181-2.428-6.16-2.428
		c-5.066,0-8.985,4.275-8.985,8.894c0,4.525,3.686,8.938,9.114,8.938c4.773,0,8.268-3.27,8.268-8.106
		C378.512,285.645,378.364,285.056,378.364,285.056L378.364,285.056z"/>
	<path id="path3000" d="M385.064,283.299c-3.356,0-5.762,2.624-5.762,5.684c0,3.105,2.333,5.778,5.801,5.778
		c3.139,0,5.711-2.4,5.711-5.711C390.815,285.254,387.823,283.299,385.064,283.299L385.064,283.299z M385.097,285.55
		c1.651,0,3.215,1.334,3.215,3.484c0,2.104-1.557,3.477-3.222,3.477c-1.829,0-3.272-1.465-3.272-3.494
		C381.818,287.032,383.243,285.55,385.097,285.55L385.097,285.55z"/>
	<path id="path3005" d="M397.594,283.299c-3.356,0-5.762,2.624-5.762,5.684c0,3.105,2.333,5.778,5.801,5.778
		c3.139,0,5.711-2.4,5.711-5.711C403.345,285.254,400.353,283.299,397.594,283.299L397.594,283.299z M397.628,285.55
		c1.651,0,3.215,1.334,3.215,3.484c0,2.104-1.557,3.477-3.222,3.477c-1.829,0-3.272-1.465-3.272-3.494
		C394.348,287.032,395.773,285.55,397.628,285.55L397.628,285.55z"/>
	<path id="path3007" d="M409.885,283.305c-3.081,0-5.502,2.698-5.502,5.727c0,3.45,2.807,5.737,5.449,5.737
		c1.633,0,2.502-0.648,3.143-1.393v1.13c0,1.977-1.201,3.161-3.013,3.161c-1.751,0-2.629-1.302-2.934-2.04l-2.203,0.921
		c0.781,1.652,2.354,3.375,5.155,3.375c3.063,0,5.397-1.929,5.397-5.975v-10.298h-2.403v0.971
		C412.236,283.824,411.226,283.305,409.885,283.305L409.885,283.305z M410.108,285.551c1.51,0,3.061,1.29,3.061,3.492
		c0,2.239-1.548,3.472-3.095,3.472c-1.642,0-3.171-1.333-3.171-3.451C406.904,286.864,408.491,285.551,410.108,285.551
		L410.108,285.551z"/>
	<path id="path3011" d="M426.061,283.291c-2.906,0-5.346,2.312-5.346,5.723c0,3.61,2.72,5.751,5.625,5.751
		c2.425,0,3.913-1.327,4.801-2.515l-1.981-1.318c-0.514,0.798-1.373,1.578-2.808,1.578c-1.611,0-2.352-0.882-2.811-1.737
		l7.685-3.189l-0.399-0.934C430.085,284.82,428.353,283.291,426.061,283.291L426.061,283.291z M426.162,285.495
		c1.047,0,1.801,0.557,2.121,1.224l-5.132,2.145C422.929,287.204,424.503,285.495,426.162,285.495L426.162,285.495z"/>
	<path id="path3015" d="M417.052,294.425h2.524v-16.892h-2.524V294.425z"/>
</g>
</svg>
