<?xml version="1.0" encoding="utf-8"?>
<!-- Generator: Adobe Illustrator 19.2.1, SVG Export Plug-In . SVG Version: 6.00 Build 0)  -->
<svg version="1.1" id="Layer_1" xmlns="http://www.w3.org/2000/svg" xmlns:xlink="http://www.w3.org/1999/xlink" x="0px" y="0px"
	 viewBox="0 0 500 500" enable-background="new 0 0 500 500" xml:space="preserve">
<rect x="-23" y="-6" stroke="#000000" stroke-miterlimit="10" width="546" height="520"/>
<polygon id="XMLID_11_" fill="#1F72B5" points="145.687,401.085 122.476,140.748 377.524,140.748 354.288,401.045 249.844,430 "/>
<polygon id="XMLID_10_" fill="#51A3DC" points="250,407.868 334.396,384.47 354.252,162.035 250,162.035 "/>
<polygon id="XMLID_35_" fill="#EBEBEB" points="167.125,222.125 164,192 336,192 334,226.875 261.25,259 331,259 323.5,358 
	253.2,376.875 180.25,359.188 175.75,309 208,309 209.75,335.5 252,343.375 291,331.438 292.75,289 173,289 170.75,257.5 
	250,222.75 "/>
<g id="XMLID_1_">
	<polygon id="XMLID_39_" fill="#CECECE" points="170.75,257.5 173,289 250,289 250,222.75 	"/>
	<polygon id="XMLID_40_" fill="#CECECE" points="209.75,335.5 208,309 175.75,309 180.25,359.188 250,376.099 250,343.002 	"/>
	<polygon id="XMLID_41_" fill="#CECECE" points="164,192 167.125,222.125 250,222.75 250,192 	"/>
</g>
<g id="XMLID_36_">
	<polygon id="XMLID_34_" fill="#FFFFFF" points="274,82 274,70 226,70 226,98 259,98 259,107 225,107 225,118 273,118 273,89 
		239,89 239,82 	"/>
	<polygon id="XMLID_38_" fill="#FFFFFF" points="187,98.273 187,107 221,107 221,118 173,118 173,89.273 173,70 220,70 220,82 
		187,82 	"/>
	<polygon id="XMLID_37_" fill="#FFFFFF" points="327,82 327,70 279,70 279,98 312,98 312,107 278,107 278,118 326,118 326,89 
		292,89 292,82 	"/>
</g>
</svg>
