<?xml version="1.0" encoding="utf-8"?>
<!-- Generator: Adobe Illustrator 19.2.1, SVG Export Plug-In . SVG Version: 6.00 Build 0)  -->
<svg version="1.1" id="Layer_1" xmlns="http://www.w3.org/2000/svg" xmlns:xlink="http://www.w3.org/1999/xlink" x="0px" y="0px"
	 viewBox="0 0 500 500" enable-background="new 0 0 500 500" xml:space="preserve">
<rect x="-5.198" y="-1.425" width="508.982" height="506.503"/>
<polygon id="XMLID_11_" fill="#E44D26" points="145.687,401.085 122.476,140.748 377.524,140.748 354.288,401.045 249.844,430 "/>
<polygon id="XMLID_10_" fill="#F16529" points="250,407.868 334.396,384.47 354.252,162.035 250,162.035 "/>
<polygon id="XMLID_9_" fill="#EBEBEB" points="250,258.59 207.749,258.59 204.831,225.894 250,225.894 250,193.964 249.89,193.964 
	169.937,193.964 170.701,202.531 178.548,290.519 250,290.519 "/>
<polygon id="XMLID_8_" fill="#EBEBEB" points="250,341.514 249.86,341.551 214.3,331.949 212.027,306.484 194.748,306.484 
	179.975,306.484 184.448,356.618 249.853,374.775 250,374.734 "/>
<path id="XMLID_7_" fill="#FFFFFF" d="M146.206,70h16.226v16.031h14.843V70h16.227v48.547h-16.226V102.29h-14.843v16.256h-16.226
	L146.206,70L146.206,70z"/>
<path id="XMLID_6_" fill="#FFFFFF" d="M214.839,86.099h-14.285V70h44.803v16.099h-14.291v32.448H214.84L214.839,86.099
	L214.839,86.099z"/>
<path id="XMLID_5_" fill="#FFFFFF" d="M252.469,70h16.919l10.408,17.058L290.193,70h16.926v48.547h-16.159V94.484l-11.164,17.261
	h-0.279l-11.171-17.261v24.062h-15.876V70z"/>
<path id="XMLID_4_" fill="#FFFFFF" d="M315.194,70h16.231v32.5h22.819v16.047h-39.049V70z"/>
<polygon id="XMLID_3_" fill="#FFFFFF" points="249.89,258.59 249.89,290.519 289.207,290.519 285.501,331.929 249.89,341.541 
	249.89,374.759 315.346,356.618 315.827,351.223 323.33,267.164 324.109,258.59 315.504,258.59 "/>
<polygon id="XMLID_2_" fill="#FFFFFF" points="249.89,193.964 249.89,213.795 249.89,225.816 249.89,225.894 326.911,225.894 
	326.911,225.894 327.014,225.894 327.654,218.717 329.109,202.531 329.873,193.964 "/>
</svg>
