<?xml version="1.0" encoding="utf-8"?>
<!-- Generator: Adobe Illustrator 21.0.0, SVG Export Plug-In . SVG Version: 6.00 Build 0)  -->
<svg version="1.1" id="Layer_1" xmlns="http://www.w3.org/2000/svg" xmlns:xlink="http://www.w3.org/1999/xlink" x="0px" y="0px"
	 viewBox="0 0 500 500" style="enable-background:new 0 0 500 500;" xml:space="preserve">
<style type="text/css">
	.st0{fill:#00C8FF;}
	.st1{fill:#001D26;}
</style>
<rect id="XMLID_3_" class="st0" width="500" height="500"/>
<rect id="XMLID_5_" x="22" y="22" class="st1" width="456" height="456"/>
<g id="XMLID_9_">
	<g id="XMLID_73_">
		<path id="XMLID_74_" class="st0" d="M121.5,120.8c0-1.7,0.3-2.4,1.8-2.4c11.2-0.3,33.4-0.7,55.9-0.7c58,0,80.1,33.7,80.4,73.6
			c0,54.7-40.8,75.4-84.3,75.4c-8.3,0-16.3,0-18.3,0v78.1c0,2.1-0.6,2.8-2.1,2.8h-31.4c-1.5,0-2.1-0.7-2.1-2.4V120.8z M157,233.4
			c2.4,0.3,6.8,0.7,19.2,0.7c23.4,0,45.9-6.7,45.9-41.1c0-27.5-15.1-41.7-42.9-41.7c-11.5,0-19.8,0.3-22.2,0.7V233.4z"/>
	</g>
</g>
<g id="XMLID_6_">
	<g id="XMLID_62_">
		<path id="XMLID_63_" class="st0" d="M333.4,207.7c-14.2,0-18,8.9-18,15.4c0,8.3,3.8,12.7,25.6,23c29.9,14.4,42.7,27.2,42.7,51.9
			c0,34.4-22.4,54-54.4,54c-15.4,0-34.8-1.5-47.1-10.4c-1.2-0.7-1.7-1.7-1.7-3.4v-31.6c0-1.7,1.2-2.4,2-1.7
			c15.1,11.4,32,14.6,47.1,14.6c13.4,0,18-8.9,18-16.5c0-8.9-3.2-14.1-24.2-24.1c-29.9-14.4-42.4-26.9-42.4-52
			c0-27.9,20.9-50.9,55.2-50.9c17.7,0,30.2,0.5,38.4,6c1.5,1.4,1.7,2.4,1.7,4.5v28.2c0,2.1-1.2,3.1-2.6,2.1
			C363.4,209.9,348.6,207.7,333.4,207.7z"/>
	</g>
</g>
</svg>
