<?xml version="1.0" standalone="no"?>
<!DOCTYPE svg PUBLIC "-//W3C//DTD SVG 20010904//EN"
 "http://www.w3.org/TR/2001/REC-SVG-20010904/DTD/svg10.dtd">
<svg version="1.0" xmlns="http://www.w3.org/2000/svg"
 width="512.000000pt" height="512.000000pt" viewBox="0 0 512.000000 512.000000"
 preserveAspectRatio="xMidYMid meet">
<metadata>
Created by potrace 1.14, written by Peter Selinger 2001-2017
</metadata>
<g transform="translate(0.000000,512.000000) scale(0.100000,-0.100000)"
fill="#000000" stroke="none">
<path d="M0 2560 l0 -2560 1278 0 c771 0 1271 4 1262 10 -8 5 -505 292 -1105
638 l-1090 630 0 1282 0 1282 1090 630 c600 346 1097 633 1105 638 9 6 -491
10 -1262 10 l-1278 0 0 -2560z"/>
<path d="M2576 5112 c5 -5 503 -293 1107 -642 l1097 -632 0 -638 0 -638 -552
-319 -553 -319 -5 639 -5 638 -553 320 -553 319 -552 -319 -552 -318 0 -643 0
-643 552 -318 552 -319 552 319 c473 273 556 318 574 309 11 -6 262 -150 558
-320 l537 -310 0 -639 0 -639 170 0 170 0 0 2560 0 2560 -1277 0 c-702 0
-1273 -4 -1267 -8z"/>
<path d="M3121 325 c-299 -173 -546 -317 -549 -320 -3 -3 489 -5 1093 -5 663
0 1095 4 1090 9 -8 8 -1085 632 -1089 631 0 0 -246 -142 -545 -315z"/>
</g>
</svg>
