<?xml version="1.0" encoding="utf-8"?>
<!-- Generator: Adobe Illustrator 21.0.0, SVG Export Plug-In . SVG Version: 6.00 Build 0)  -->
<svg version="1.1" id="Layer_1" xmlns="http://www.w3.org/2000/svg" xmlns:xlink="http://www.w3.org/1999/xlink" x="0px" y="0px"
	 viewBox="0 0 396 396" style="enable-background:new 0 0 396 396;" xml:space="preserve">
<style type="text/css">
	.st0{fill:#3F3F40;}
	.st1{clip-path:url(#XMLID_11_);fill:#009CD9;}
	.st2{clip-path:url(#XMLID_11_);fill:#74BB11;}
	.st3{clip-path:url(#XMLID_11_);fill:#EB2084;}
</style>
<g id="XMLID_1_">
	<path id="XMLID_5_" class="st0" d="M78.7,234.6v-9.1c0,0-3.9,4.4-9.3,6.9c-4.5,2.1-9.2,3-14.2,3c-6.1,0-11.6-1.1-16.5-3.2
		c-4.8-2.2-8.9-5-12.2-8.6c-3.3-3.6-5.8-7.7-7.5-12.3c-1.7-4.6-2.6-9.3-2.6-14.2c0-4.5,0.8-9.1,2.4-13.7c1.6-4.6,4.1-8.6,7.3-12.3
		c3.2-3.8,7.2-6.8,12.1-9.2c4.8-2.4,10.4-3.8,17-3.8c5.1,0,9.7,1.2,14.2,3.1c4.9,2.1,9.3,6.9,9.3,6.9v-9.1h15.8v75.5H78.7z
		 M78.4,197c0-3.4-0.6-6.6-1.8-9.4c-1.2-2.8-2.9-5.3-5-7.3c-2.1-2-4.6-3.6-7.4-4.7c-2.8-1.1-5.8-1.7-9.1-1.7
		c-3.9,0-7.2,0.7-10.1,2.2c-2.9,1.4-5.3,3.3-7.2,5.5c-1.9,2.3-3.4,4.8-4.3,7.5c-0.9,2.7-1.4,5.4-1.4,7.9c0,3,0.6,5.8,1.7,8.5
		c1.1,2.7,2.7,5.1,4.7,7.2c2,2.1,4.4,3.8,7.3,5.1c2.8,1.3,5.9,1.9,9.2,1.9c3.3,0,6.4-0.6,9.2-1.8c2.8-1.2,5.3-2.8,7.4-4.9
		c2.1-2.1,3.7-4.5,5-7.2C77.8,203.1,78.4,200.1,78.4,197z"/>
	<path id="XMLID_6_" class="st0" d="M201.4,159.3v40.1c0,4.5,0.1,8.7,2.3,12.1c3.2,5,8,8.6,14.4,8.6c6.9,0,13.4-4.1,16-10.4
		c1.2-2.9,1.4-6.7,1.4-10.7v-39.6h15.5v75.5h-15.6v-6.2c0,0-1.8,2.8-5.3,4.5c-3.9,1.8-7.3,2.8-12.1,2.8c-4.3,0-8.2-0.7-11.8-1.9
		c-3.6-1.3-7.4-3.6-10.1-5.9c-3.1-2.7-6-6.2-7.7-10.7c-1.7-4.5-2.8-8-2.8-18v-40.1H201.4z"/>
	<path id="XMLID_7_" class="st0" d="M268.2,234.6v-75.2l15.8,0v6.7c0,0,1.2-2.8,8.9-5.4c5.2-1.7,12.4-1.4,13.3-1.4v15.9
		c-1.1,0-12.2-0.7-17.9,5.3c-2.7,2.8-4,5.6-4.2,13.2v40.7H268.2z"/>
	<path id="XMLID_10_" class="st0" d="M321.9,206c0.9,3.6,7.5,13.8,20.1,14.6c6.5,0.4,11.5-1.7,15.6-5.6l17.5,3.5
		c-3.9,6.2-14.5,15.4-27.1,16.6c-17.6,1.6-28.9-6.4-35.1-14.8c-7.1-9.5-7.8-19.7-7.8-22.5c0-5.6,0.7-10.8,2.7-15.6
		c2-4.8,4.8-8.9,8.3-12.4c3.5-3.5,7.6-6.2,12.2-8.2c4.7-2,9.7-3,15-3c5.1,0,9.9,1,14.5,2.9c4.6,1.9,8.7,4.6,12.2,8
		c3.5,3.4,6.3,7.4,8.4,12.1c2.1,4.7,3.1,9.7,3.1,15.2c0,1.3,0,2.6-0.1,4.2c-0.1,1.5-0.7,4.6-0.8,5H321.9z M364.6,190.6
		c-0.2-2.7-7.3-16.1-21.3-16.1c-13.9,0-21.4,13.4-21.6,16.1H364.6z"/>
	<g id="XMLID_13_">
		<defs>
			<polygon id="XMLID_12_" points="179,159.8 151,198.4 178,235.3 158.3,235.3 141.1,211.8 124.2,235.3 104.6,235.3 131.4,198.4 
				103.5,159.8 123.2,159.8 141.1,184.9 159.2,159.8 			"/>
		</defs>
		<clipPath id="XMLID_11_">
			<use xlink:href="#XMLID_12_"  style="overflow:visible;"/>
		</clipPath>
		<polygon id="XMLID_14_" class="st1" points="179,159.8 151,198.4 178,235.3 158.3,235.3 141.1,211.8 124.2,235.3 104.6,235.3 
			131.4,198.4 103.5,159.8 123.2,159.8 141.1,184.9 159.2,159.8 		"/>
		<rect id="XMLID_15_" x="144.3" y="205.8" class="st2" width="34.9" height="31"/>
		<rect id="XMLID_16_" x="138.4" y="222.5" class="st3" width="24.7" height="22.9"/>
		<rect id="XMLID_17_" x="117" y="157.4" class="st2" width="42" height="38.6"/>
		<rect id="XMLID_18_" x="102.9" y="157" class="st1" width="14.2" height="25.9"/>
		<rect id="XMLID_19_" x="109.6" y="166" class="st3" width="12.7" height="12.2"/>
		<rect id="XMLID_20_" x="159.1" y="158.5" class="st1" width="24.7" height="22.9"/>
		<rect id="XMLID_21_" x="140.7" y="179.7" class="st3" width="24.7" height="22.9"/>
		<rect id="XMLID_22_" x="104.2" y="216.2" class="st3" width="27.4" height="25.4"/>
		<rect id="XMLID_23_" x="118.2" y="227.4" class="st1" width="10.5" height="10.2"/>
		<rect id="XMLID_24_" x="121.7" y="198.4" class="st2" width="15.6" height="14.8"/>
	</g>
</g>
</svg>
