<?xml version="1.0" encoding="utf-8"?>
<!-- Generator: Adobe Illustrator 19.2.1, SVG Export Plug-In . SVG Version: 6.00 Build 0)  -->
<svg version="1.1" id="Layer_1" xmlns="http://www.w3.org/2000/svg" xmlns:xlink="http://www.w3.org/1999/xlink" x="0px" y="0px"
	 viewBox="0 0 122.5 122.5" enable-background="new 0 0 122.5 122.5" xml:space="preserve">
<rect x="-1.75" y="-2.5" width="126.5" height="127"/>
<g>
	<path fill-rule="evenodd" clip-rule="evenodd" fill="#FFFFFF" d="M60.609,2.431c-33.347,0-60.388,27.035-60.388,60.388
		c0,26.681,17.303,49.316,41.297,57.302c3.018,0.559,4.126-1.311,4.126-2.905c0-1.439-0.056-6.197-0.082-11.243
		c-16.8,3.653-20.345-7.125-20.345-7.125c-2.747-6.979-6.705-8.836-6.705-8.836c-5.479-3.748,0.413-3.671,0.413-3.671
		c6.063,0.426,9.257,6.224,9.257,6.224c5.386,9.231,14.127,6.563,17.573,5.02c0.542-3.902,2.106-6.567,3.834-8.075
		c-13.413-1.526-27.514-6.705-27.514-29.844c0-6.593,2.359-11.98,6.223-16.209c-0.627-1.521-2.694-7.663,0.585-15.982
		c0,0,5.071-1.622,16.61,6.191c4.817-1.338,9.983-2.009,15.115-2.033c5.132,0.024,10.302,0.694,15.128,2.033
		c11.526-7.813,16.59-6.191,16.59-6.191c3.287,8.318,1.22,14.46,0.593,15.982c3.872,4.229,6.215,9.616,6.215,16.209
		c0,23.194-14.127,28.301-27.574,29.796c2.166,1.874,4.096,5.549,4.096,11.183c0,8.08-0.069,14.583-0.069,16.572
		c0,1.607,1.087,3.49,4.147,2.897c23.981-7.994,41.263-30.622,41.263-57.294C120.996,29.466,93.959,2.431,60.609,2.431z"/>
	<path fill="#FFFFFF" d="M23.093,89.134c-0.133,0.301-0.605,0.391-1.035,0.185c-0.438-0.197-0.684-0.606-0.542-0.907
		c0.13-0.309,0.602-0.395,1.04-0.188C22.995,88.42,23.245,88.834,23.093,89.134L23.093,89.134z M22.35,88.584"/>
	<path fill="#FFFFFF" d="M25.539,91.863c-0.288,0.267-0.852,0.143-1.233-0.279c-0.396-0.421-0.469-0.984-0.177-1.255
		c0.297-0.267,0.843-0.142,1.238,0.279C25.763,91.034,25.84,91.592,25.539,91.863L25.539,91.863z M24.963,91.245"/>
	<path fill="#FFFFFF" d="M27.92,95.34c-0.37,0.258-0.976,0.017-1.35-0.521c-0.37-0.537-0.37-1.182,0.009-1.439
		c0.374-0.258,0.971-0.025,1.35,0.507C28.298,94.433,28.298,95.078,27.92,95.34L27.92,95.34z M27.92,95.34"/>
	<path fill="#FFFFFF" d="M31.182,98.701c-0.331,0.365-1.036,0.267-1.552-0.231c-0.528-0.486-0.675-1.178-0.344-1.543
		c0.336-0.365,1.045-0.263,1.564,0.231C31.375,97.644,31.535,98.339,31.182,98.701L31.182,98.701z M31.182,98.701"/>
	<path fill="#FFFFFF" d="M35.682,100.652c-0.146,0.473-0.825,0.688-1.509,0.486c-0.684-0.207-1.13-0.761-0.992-1.238
		c0.142-0.477,0.824-0.7,1.513-0.485C35.376,99.621,35.824,100.17,35.682,100.652L35.682,100.652z M35.682,100.652"/>
	<path fill="#FFFFFF" d="M40.624,101.013c0.017,0.498-0.563,0.911-1.281,0.92c-0.722,0.017-1.307-0.387-1.314-0.877
		c0-0.503,0.567-0.911,1.289-0.924C40.036,100.119,40.624,100.519,40.624,101.013L40.624,101.013z M40.624,101.013"/>
	<path fill="#FFFFFF" d="M45.223,100.231c0.086,0.485-0.413,0.984-1.126,1.117c-0.701,0.129-1.35-0.172-1.439-0.653
		c-0.087-0.498,0.421-0.997,1.121-1.126C44.493,99.445,45.132,99.737,45.223,100.231L45.223,100.231z M45.223,100.231"/>
</g>
</svg>
