<?xml version="1.0" encoding="utf-8"?>
<!-- Generator: Adobe Illustrator 21.0.0, SVG Export Plug-In . SVG Version: 6.00 Build 0)  -->
<svg version="1.1" id="Layer_1" xmlns="http://www.w3.org/2000/svg" xmlns:xlink="http://www.w3.org/1999/xlink" x="0px" y="0px"
	 viewBox="0 0 500 500" style="enable-background:new 0 0 500 500;" xml:space="preserve">
<style type="text/css">
	.st0{fill:#FF7C00;}
	.st1{fill:#261300;}
</style>
<g id="XMLID_1_">
	<rect id="XMLID_3_" class="st0" width="500" height="500"/>
	<rect id="XMLID_5_" x="22" y="22" class="st1" width="456" height="456"/>
	<g id="XMLID_10_">
		<g id="XMLID_75_">
			<path id="XMLID_76_" class="st0" d="M172.8,284.6l-18,59.9c-0.3,2.1-1.2,2.8-3,2.8h-30.2c-2.1,0-2.7-1-2.1-3.4
				c16-52.6,42.9-140.3,61.8-199.9c0.9-3.4,1.8-6.9,2.4-18.9c0-1.4,0.9-2.1,1.8-2.1h40.8c1.5,0,1.8,0.3,2.4,1.7
				c21.9,70.5,45.9,148.3,68.3,219.5c0.6,2.1,0,3.1-1.8,3.1h-33.1c-1.5,0-2.1-0.7-2.7-2.1l-18.9-60.5H172.8z M232.5,250.9
				c-5.9-23-20.4-69.5-26.3-93.6h-0.3c-4.4,22.7-16.6,61.6-25.4,93.6H232.5z"/>
		</g>
	</g>
	<g id="XMLID_6_">
		<g id="XMLID_70_">
			<path id="XMLID_71_" class="st0" d="M327,135.9c0-12.7,8.4-21.3,19.8-21.3c11.9,0,19.2,8.6,19.2,21.3c0,13.1-7.8,21.3-19.5,21.3
				C334.9,157.3,327,149,327,135.9z M329.1,182.7c0-2.1,0.6-2.8,2-2.8h30.8c1.7,0,2.3,0.3,2.3,2.8v161.7c0,1.7-0.6,2.8-2.3,2.8
				h-30.2c-1.7,0-2.6-0.7-2.6-3.1V182.7z"/>
		</g>
	</g>
</g>
</svg>
