<?xml version="1.0" encoding="utf-8"?>
<!-- Generator: Adobe Illustrator 19.2.1, SVG Export Plug-In . SVG Version: 6.00 Build 0)  -->
<svg version="1.1" id="Layer_1" xmlns="http://www.w3.org/2000/svg" xmlns:xlink="http://www.w3.org/1999/xlink" x="0px" y="0px"
	 viewBox="0 0 19.8 20.4" style="enable-background:new 0 0 19.8 20.4;" xml:space="preserve">
<style type="text/css">
	.st0{fill:#006998;}
	.st1{fill:#FFFFFF;}
</style>
<path class="st0" d="M17.8,1.2H2.5c-0.7,0-1.3,0.6-1.3,1.3v15.4c0,0.7,0.6,1.3,1.3,1.3h15.3c0.7,0,1.3-0.6,1.3-1.3V2.5
	C19.2,1.8,18.6,1.2,17.8,1.2z"/>
<path class="st1" d="M3.8,7.9h2.7v8.6H3.8V7.9z M5.2,3.7c0.9,0,1.5,0.7,1.5,1.5S6,6.8,5.2,6.8c-0.9,0-1.5-0.7-1.5-1.5
	S4.3,3.7,5.2,3.7"/>
<path class="st1" d="M8.2,7.9h2.6v1.2h0c0.4-0.7,1.2-1.4,2.5-1.4c2.7,0,3.2,1.8,3.2,4.1v4.7h-2.7v-4.2c0-1,0-2.3-1.4-2.3
	c-1.4,0-1.6,1.1-1.6,2.2v4.2H8.2V7.9z"/>
</svg>
