<?xml version="1.0" encoding="utf-8"?>
<!-- Generator: Adobe Illustrator 19.2.1, SVG Export Plug-In . SVG Version: 6.00 Build 0)  -->
<svg version="1.1" id="Layer_1" xmlns="http://www.w3.org/2000/svg" xmlns:xlink="http://www.w3.org/1999/xlink" x="0px" y="0px"
	 viewBox="0 0 500 500" enable-background="new 0 0 500 500" xml:space="preserve">
<rect x="-5.796" y="-5.018" stroke="#000000" stroke-miterlimit="10" width="516.766" height="513.772"/>
<g id="XMLID_1_">
	<path id="XMLID_5_" fill="#404137" d="M122.231,253.088c0-1.061-0.558-2.036-1.474-2.563l-24.418-14.052
		c-0.413-0.243-0.876-0.369-1.345-0.388h-0.252c-0.466,0.019-0.929,0.145-1.348,0.388l-24.418,14.052
		c-0.91,0.526-1.476,1.502-1.476,2.563l0.053,37.839c0,0.526,0.273,1.016,0.736,1.274c0.454,0.271,1.014,0.271,1.466,0l14.511-8.309
		c0.918-0.545,1.477-1.507,1.477-2.559v-17.678c0-1.054,0.558-2.029,1.473-2.553l6.179-3.559c0.46-0.266,0.964-0.396,1.478-0.396
		c0.503,0,1.02,0.13,1.467,0.396l6.177,3.559c0.914,0.524,1.475,1.499,1.475,2.553v17.678c0,1.052,0.566,2.02,1.478,2.559
		l14.508,8.309c0.455,0.271,1.023,0.271,1.474,0c0.45-0.258,0.733-0.747,0.733-1.274L122.231,253.088"/>
	<path id="XMLID_8_" fill="#404137" d="M250.35,272.79c0,0.263-0.141,0.507-0.37,0.638l-8.386,4.835
		c-0.228,0.131-0.509,0.131-0.737,0l-8.387-4.835c-0.228-0.131-0.369-0.375-0.369-0.638v-9.685c0-0.262,0.141-0.506,0.368-0.639
		l8.387-4.844c0.229-0.132,0.51-0.132,0.738,0l8.387,4.844c0.227,0.132,0.368,0.376,0.368,0.639V272.79z M252.615,201.073
		c-0.457-0.255-1.014-0.249-1.466,0.016c-0.451,0.265-0.727,0.749-0.727,1.271v37.473c0,0.368-0.197,0.709-0.516,0.894
		c-0.319,0.185-0.713,0.185-1.033,0l-6.116-3.523c-0.912-0.526-2.035-0.525-2.947,0.001l-24.428,14.098
		c-0.913,0.527-1.475,1.5-1.475,2.554v28.2c0,1.053,0.561,2.027,1.474,2.555l24.426,14.108c0.913,0.527,2.038,0.527,2.951,0
		l24.431-14.108c0.913-0.528,1.475-1.502,1.475-2.555V211.76c0-1.069-0.58-2.055-1.514-2.576L252.615,201.073"/>
	<path id="XMLID_9_" fill="#404137" d="M340.009,262.853c0.909-0.528,1.467-1.499,1.467-2.55v-6.833
		c0-1.051-0.558-2.023-1.469-2.551l-24.269-14.092c-0.915-0.53-2.041-0.531-2.957-0.004l-24.418,14.098
		c-0.913,0.527-1.475,1.5-1.475,2.554v28.193c0,1.06,0.57,2.039,1.49,2.563l24.267,13.828c0.895,0.511,1.992,0.516,2.893,0.016
		l14.677-8.158c0.466-0.259,0.756-0.747,0.758-1.279c0.004-0.532-0.28-1.024-0.74-1.289l-24.573-14.104
		c-0.46-0.262-0.742-0.751-0.742-1.279v-8.836c0-0.527,0.282-1.014,0.738-1.277l7.649-4.409c0.454-0.263,1.016-0.263,1.473,0
		l7.651,4.409c0.456,0.263,0.738,0.751,0.738,1.277v6.951c0,0.528,0.282,1.016,0.738,1.279c0.458,0.264,1.02,0.262,1.477-0.003
		L340.009,262.853"/>
	<path id="XMLID_10_" fill="#83CD29" d="M166.649,236.674c0.912-0.527,2.036-0.527,2.948,0l24.425,14.094
		c0.913,0.527,1.476,1.5,1.476,2.555v28.21c0,1.054-0.562,2.027-1.474,2.555l-24.425,14.106c-0.913,0.527-2.038,0.527-2.951,0
		l-24.418-14.106c-0.913-0.528-1.475-1.501-1.475-2.555v-28.212c0-1.053,0.562-2.027,1.476-2.554L166.649,236.674"/>
	<path id="XMLID_11_" fill="#83CD29" d="M387.431,298.598c-0.842,0-1.678-0.22-2.415-0.646l-7.69-4.55
		c-1.148-0.643-0.587-0.87-0.209-1.002c1.533-0.532,1.843-0.654,3.478-1.581c0.17-0.096,0.396-0.06,0.572,0.044l5.906,3.507
		c0.215,0.119,0.517,0.119,0.715,0l23.03-13.293c0.215-0.122,0.352-0.37,0.352-0.623v-26.579c0-0.26-0.137-0.503-0.356-0.635
		l-23.022-13.282c-0.213-0.124-0.495-0.124-0.711,0l-23.016,13.286c-0.223,0.128-0.364,0.378-0.364,0.631v26.579
		c0,0.254,0.141,0.495,0.362,0.616l6.31,3.645c3.423,1.711,5.521-0.305,5.521-2.329v-26.242c0-0.371,0.298-0.664,0.668-0.664h2.922
		c0.364,0,0.666,0.293,0.666,0.664v26.242c0,4.568-2.487,7.188-6.819,7.188c-1.332,0-2.379,0-5.305-1.442l-6.039-3.477
		c-1.492-0.862-2.415-2.475-2.415-4.201v-26.579c0-1.727,0.922-3.339,2.415-4.198l23.032-13.308c1.457-0.825,3.394-0.825,4.839,0
		l23.03,13.308c1.492,0.863,2.418,2.471,2.418,4.198v26.579c0,1.727-0.926,3.333-2.418,4.201l-23.03,13.297
		C389.119,298.378,388.285,298.598,387.431,298.598"/>
	<path id="XMLID_12_" fill="#83CD29" d="M394.546,280.286c-10.079,0-12.19-4.626-12.19-8.507c0-0.369,0.298-0.663,0.666-0.663H386
		c0.333,0,0.609,0.239,0.662,0.564c0.448,3.032,1.79,4.562,7.884,4.562c4.851,0,6.917-1.098,6.917-3.672
		c0-1.484-0.585-2.586-8.125-3.324c-6.302-0.624-10.199-2.016-10.199-7.057c0-4.647,3.917-7.418,10.483-7.418
		c7.379,0,11.029,2.561,11.491,8.055c0.018,0.19-0.049,0.371-0.174,0.513c-0.127,0.132-0.303,0.213-0.488,0.213h-2.99
		c-0.309,0-0.584-0.22-0.646-0.52c-0.717-3.19-2.462-4.21-7.193-4.21c-5.297,0-5.912,1.846-5.912,3.228
		c0,1.675,0.727,2.163,7.878,3.109c7.077,0.936,10.44,2.26,10.44,7.235C406.028,277.412,401.843,280.286,394.546,280.286"/>
	<polyline id="XMLID_13_" fill="#83CD29" points="426.304,236.429 426.304,237.112 424.365,237.112 424.365,242.163 
		423.584,242.163 423.584,237.112 421.653,237.112 421.653,236.429 426.304,236.429 	"/>
	<path id="XMLID_14_" fill="#83CD29" d="M426.995,236.429h1.114l1.645,4.846l1.639-4.846h1.107v5.734h-0.742v-3.383
		c0-0.118,0.002-0.311,0.006-0.579c0.008-0.275,0.012-0.566,0.012-0.874l-1.639,4.837h-0.77l-1.653-4.837v0.172
		c0,0.142,0,0.356,0.01,0.646c0.006,0.285,0.014,0.497,0.014,0.635v3.383h-0.742V236.429"/>
	<path id="XMLID_15_" fill="#83CD29" d="M313.899,261.532c0.176-0.102,0.392-0.102,0.566,0l4.688,2.704
		c0.174,0.101,0.282,0.287,0.282,0.49v5.412c0,0.203-0.108,0.389-0.282,0.49l-4.688,2.704c-0.174,0.102-0.39,0.102-0.566,0
		l-4.682-2.704c-0.176-0.101-0.284-0.288-0.284-0.49v-5.412c0-0.203,0.108-0.389,0.284-0.49L313.899,261.532"/>
</g>
</svg>
