<?xml version="1.0" encoding="utf-8"?>
<!-- Generator: Adobe Illustrator 21.0.0, SVG Export Plug-In . SVG Version: 6.00 Build 0)  -->
<svg version="1.1" id="Layer_1" xmlns="http://www.w3.org/2000/svg" xmlns:xlink="http://www.w3.org/1999/xlink" x="0px" y="0px"
	 viewBox="0 0 387 251" style="enable-background:new 0 0 387 251;" xml:space="preserve">
<style type="text/css">
	.st0{stroke:#000000;stroke-miterlimit:10;}
	.st1{fill:#404137;}
	.st2{fill:#83CD29;}
</style>
<rect x="-10" y="-29" class="st0" width="397" height="294"/>
<g id="XMLID_1_">
	<path id="XMLID_5_" class="st1" d="M67.2,116.1c0-1.1-0.6-2-1.5-2.6L41.3,99.5c-0.4-0.2-0.9-0.4-1.3-0.4h-0.3
		c-0.5,0-0.9,0.1-1.3,0.4L14,113.5c-0.9,0.5-1.5,1.5-1.5,2.6l0.1,37.8c0,0.5,0.3,1,0.7,1.3c0.5,0.3,1,0.3,1.5,0l14.5-8.3
		c0.9-0.5,1.5-1.5,1.5-2.6v-17.7c0-1.1,0.6-2,1.5-2.6l6.2-3.6c0.5-0.3,1-0.4,1.5-0.4c0.5,0,1,0.1,1.5,0.4l6.2,3.6
		c0.9,0.5,1.5,1.5,1.5,2.6v17.7c0,1.1,0.6,2,1.5,2.6l14.5,8.3c0.5,0.3,1,0.3,1.5,0c0.4-0.3,0.7-0.7,0.7-1.3L67.2,116.1"/>
	<path id="XMLID_8_" class="st1" d="M195.4,135.8c0,0.3-0.1,0.5-0.4,0.6l-8.4,4.8c-0.2,0.1-0.5,0.1-0.7,0l-8.4-4.8
		c-0.2-0.1-0.4-0.4-0.4-0.6v-9.7c0-0.3,0.1-0.5,0.4-0.6l8.4-4.8c0.2-0.1,0.5-0.1,0.7,0l8.4,4.8c0.2,0.1,0.4,0.4,0.4,0.6L195.4,135.8
		L195.4,135.8z M197.6,64.1c-0.5-0.3-1-0.2-1.5,0c-0.5,0.3-0.7,0.7-0.7,1.3v37.5c0,0.4-0.2,0.7-0.5,0.9s-0.7,0.2-1,0l-6.1-3.5
		c-0.9-0.5-2-0.5-2.9,0l-24.4,14.1c-0.9,0.5-1.5,1.5-1.5,2.6v28.2c0,1.1,0.6,2,1.5,2.6l24.4,14.1c0.9,0.5,2,0.5,3,0l24.4-14.1
		c0.9-0.5,1.5-1.5,1.5-2.6V74.8c0-1.1-0.6-2.1-1.5-2.6L197.6,64.1"/>
	<path id="XMLID_9_" class="st1" d="M285,125.9c0.9-0.5,1.5-1.5,1.5-2.5v-6.8c0-1.1-0.6-2-1.5-2.6l-24.3-14.1c-0.9-0.5-2-0.5-3,0
		l-24.4,14.1c-0.9,0.5-1.5,1.5-1.5,2.6v28.2c0,1.1,0.6,2,1.5,2.6l24.3,13.8c0.9,0.5,2,0.5,2.9,0l14.7-8.2c0.5-0.3,0.8-0.7,0.8-1.3
		c0-0.5-0.3-1-0.7-1.3l-24.6-14.1c-0.5-0.3-0.7-0.8-0.7-1.3v-8.8c0-0.5,0.3-1,0.7-1.3l7.6-4.4c0.5-0.3,1-0.3,1.5,0l7.7,4.4
		c0.5,0.3,0.7,0.8,0.7,1.3v7c0,0.5,0.3,1,0.7,1.3c0.5,0.3,1,0.3,1.5,0L285,125.9"/>
	<path id="XMLID_10_" class="st2" d="M111.6,99.7c0.9-0.5,2-0.5,2.9,0l24.4,14.1c0.9,0.5,1.5,1.5,1.5,2.6v28.2c0,1.1-0.6,2-1.5,2.6
		l-24.4,14.1c-0.9,0.5-2,0.5-3,0l-24.4-14.1c-0.9-0.5-1.5-1.5-1.5-2.6v-28.2c0-1.1,0.6-2,1.5-2.6L111.6,99.7"/>
	<path id="XMLID_11_" class="st2" d="M332.4,161.6c-0.8,0-1.7-0.2-2.4-0.6l-7.7-4.5c-1.1-0.6-0.6-0.9-0.2-1c1.5-0.5,1.8-0.7,3.5-1.6
		c0.2-0.1,0.4-0.1,0.6,0l5.9,3.5c0.2,0.1,0.5,0.1,0.7,0l23-13.3c0.2-0.1,0.4-0.4,0.4-0.6v-26.6c0-0.3-0.1-0.5-0.4-0.6l-23-13.3
		c-0.2-0.1-0.5-0.1-0.7,0l-23,13.3c-0.2,0.1-0.4,0.4-0.4,0.6v26.6c0,0.3,0.1,0.5,0.4,0.6l6.3,3.6c3.4,1.7,5.5-0.3,5.5-2.3v-26.2
		c0-0.4,0.3-0.7,0.7-0.7h2.9c0.4,0,0.7,0.3,0.7,0.7v26.2c0,4.6-2.5,7.2-6.8,7.2c-1.3,0-2.4,0-5.3-1.4l-6-3.5
		c-1.5-0.9-2.4-2.5-2.4-4.2v-26.6c0-1.7,0.9-3.3,2.4-4.2l23-13.3c1.5-0.8,3.4-0.8,4.8,0l23,13.3c1.5,0.9,2.4,2.5,2.4,4.2v26.6
		c0,1.7-0.9,3.3-2.4,4.2l-23,13.3C334.1,161.4,333.3,161.6,332.4,161.6"/>
	<path id="XMLID_12_" class="st2" d="M339.5,143.3c-10.1,0-12.2-4.6-12.2-8.5c0-0.4,0.3-0.7,0.7-0.7h3c0.3,0,0.6,0.2,0.7,0.6
		c0.4,3,1.8,4.6,7.9,4.6c4.9,0,6.9-1.1,6.9-3.7c0-1.5-0.6-2.6-8.1-3.3c-6.3-0.6-10.2-2-10.2-7.1c0-4.6,3.9-7.4,10.5-7.4
		c7.4,0,11,2.6,11.5,8.1c0,0.2,0,0.4-0.2,0.5c-0.1,0.1-0.3,0.2-0.5,0.2h-3c-0.3,0-0.6-0.2-0.6-0.5c-0.7-3.2-2.5-4.2-7.2-4.2
		c-5.3,0-5.9,1.8-5.9,3.2c0,1.7,0.7,2.2,7.9,3.1c7.1,0.9,10.4,2.3,10.4,7.2C351,140.4,346.8,143.3,339.5,143.3"/>
	<polyline id="XMLID_13_" class="st2" points="371.3,99.4 371.3,100.1 369.4,100.1 369.4,105.2 368.6,105.2 368.6,100.1 
		366.7,100.1 366.7,99.4 371.3,99.4 	"/>
	<path id="XMLID_14_" class="st2" d="M372,99.4h1.1l1.6,4.8l1.6-4.8h1.1v5.7h-0.7v-3.4c0-0.1,0-0.3,0-0.6c0-0.3,0-0.6,0-0.9
		l-1.6,4.8h-0.8l-1.7-4.8v0.2c0,0.1,0,0.4,0,0.6c0,0.3,0,0.5,0,0.6v3.4H372L372,99.4"/>
	<path id="XMLID_15_" class="st2" d="M258.9,124.5c0.2-0.1,0.4-0.1,0.6,0l4.7,2.7c0.2,0.1,0.3,0.3,0.3,0.5v5.4
		c0,0.2-0.1,0.4-0.3,0.5l-4.7,2.7c-0.2,0.1-0.4,0.1-0.6,0l-4.7-2.7c-0.2-0.1-0.3-0.3-0.3-0.5v-5.4c0-0.2,0.1-0.4,0.3-0.5
		L258.9,124.5"/>
</g>
</svg>
