<?xml version="1.0" encoding="utf-8"?>
<!-- Generator: Adobe Illustrator 19.2.1, SVG Export Plug-In . SVG Version: 6.00 Build 0)  -->
<svg version="1.1" id="Layer_1" xmlns="http://www.w3.org/2000/svg" xmlns:xlink="http://www.w3.org/1999/xlink" x="0px" y="0px"
	 viewBox="0 0 134.993 113.994" enable-background="new 0 0 134.993 113.994" xml:space="preserve">
<rect x="-1.804" y="-1.137" width="141" height="117.667"/>
<g id="XMLID_61_">
	<linearGradient id="XMLID_2_" gradientUnits="userSpaceOnUse" x1="71.813" y1="18.1362" x2="84.8618" y2="30.1436">
		<stop  offset="0" style="stop-color:#424242"/>
		<stop  offset="0.5714" style="stop-color:#0D0D0D"/>
		<stop  offset="1" style="stop-color:#262626"/>
	</linearGradient>
	<path id="XMLID_35_" fill-rule="evenodd" clip-rule="evenodd" fill="url(#XMLID_2_)" d="M70.889,19.073
		c-1.39,2.157-1.901,4.24-1.5,6.25c0.366,1.901,1.426,3.399,3.217,4.459c1.718,1.06,4.386,1.425,8.078,1.133
		c4.715-0.329,7.09-1.316,7.127-2.924c0.256-2.668-0.769-5.592-3.071-8.698c-2.485-3.326-5.153-4.861-8.041-4.532
		C74.47,15.053,72.533,16.478,70.889,19.073L70.889,19.073z"/>
	<radialGradient id="XMLID_3_" cx="68.1344" cy="70.0635" r="44.8942" gradientUnits="userSpaceOnUse">
		<stop  offset="0" style="stop-color:#404040"/>
		<stop  offset="1" style="stop-color:#121212"/>
	</radialGradient>
	<path id="XMLID_75_" fill-rule="evenodd" clip-rule="evenodd" fill="url(#XMLID_3_)" d="M118.026,98.103
		c-1.342-2.65-2.939-5.3-4.828-7.914c-2.142-2.941-4.429-5.627-6.788-8.023c-2.287-2.287-4.72-4.32-7.225-6.099
		c-5.263-3.666-11.797-6.752-19.602-9.257c-2.868-0.907-5.663-1.379-8.422-1.452l-3.848,0.145l0.073-0.472l5.591-6.679
		c0.108-0.109,0.217-0.254,0.326-0.363c2.359-2.722,4.538-4.865,6.462-6.353c4.32,2.359,8.385,3.013,12.125,1.887
		c2.976-0.871,6.135-3.012,9.475-6.425c3.23-3.231,4.537-5.735,3.957-7.514c-0.98-2.941-3.339-4.356-7.079-4.319
		c-1.707,0.035-3.957,0.871-6.679,2.431c-2.142,1.234-3.704,2.324-4.61,3.231c-8.241-3.703-14.122-5.881-17.68-6.499
		c-13.431-2.396-25.047,1.889-34.813,12.814c-5.264,5.99-7.785,9.548-7.151,10.492c0.846,1.259,3.122,0.254,3.122,0.254
		c0.726-0.182,1.597-0.472,2.65-0.799c5.736-2.033,8.531-3.486,8.349-4.356l0.181-3.122c0.182-2.542,1.888-4.865,5.046-6.97
		c5.264-3.557,10.382-4.21,15.392-1.96c1.597,0.726,3.812,2.07,6.643,3.993c3.304,2.287,5.735,3.849,7.224,4.683
		c0.146,0.182,0.109,0.327-0.145,0.436c-2.941,2.433-5.735,5.155-8.458,8.096c-1.271,1.343-2.541,2.759-3.739,4.247l-3.013,4.174
		c-3.195,0.69-7.297,2.106-12.27,4.247c-7.587,3.594-13.613,7.079-18.078,10.383c-0.472,0.362-0.98,0.725-1.452,1.125
		c-5.627,4.502-9.778,9.467-12.234,14.92c-0.372,0.826-1.092,2.793,0.442,3.598c2.406,1.262,8.452,0.613,15.676-2.909
		c5.3-2.613,10.709-6.389,16.263-11.362c1.38-1.307,2.795-2.722,4.247-4.247c1.706-1.851,3.485-3.848,5.337-5.989l7.006-0.363
		c5.772,0.145,11.834,0.835,18.188,2.033c6.134,1.162,10.781,2.614,14.011,4.32c1.38,0.762,2.505,1.561,3.339,2.396
		c1.707,1.707,2.324,3.413,1.853,5.118l-0.691,1.852c-0.217,0.653-0.254,1.161-0.145,1.561c0.58,1.67,2.722,3.957,6.389,6.861
		c3.303,2.614,6.243,4.538,8.893,5.808c1.562,0.69,2.468,0.762,2.722,0.218C120.603,104.42,119.914,101.806,118.026,98.103z
		 M93.609,40.727c1.813-0.871,3.481-1.439,5.042-1.703c1.813-0.265,3.083-0.113,3.772,0.53c0.617,0.53,0.617,1.097,0.072,1.665
		c-1.124,1.173-3.119,1.778-6.056,1.892c-2.648,0.114-4.28-0.114-4.969-0.682C91.106,42.164,91.832,41.596,93.609,40.727z
		 M42.517,86.686c-9.511,8.744-28.918,17.642-16.364,1.688c6.809-8.654,25.875-11.582,25.875-11.582S51.049,78.843,42.517,86.686z"
		/>
	<radialGradient id="XMLID_4_" cx="114.3122" cy="98.9414" r="83.0301" gradientUnits="userSpaceOnUse">
		<stop  offset="0" style="stop-color:#0F0F0F"/>
		<stop  offset="1" style="stop-color:#1A1A1A"/>
	</radialGradient>
	<path id="XMLID_31_" opacity="0.52" fill-rule="evenodd" clip-rule="evenodd" fill="url(#XMLID_4_)" d="M118.026,98.103
		c-1.342-2.65-2.939-5.3-4.828-7.914c-2.142-2.941-4.429-5.627-6.788-8.023c-2.287-2.287-4.72-4.32-7.225-6.099
		c-5.263-3.666-11.797-6.752-19.602-9.257c-2.868-0.907-5.663-1.379-8.422-1.452l-3.848,0.145l-6.752,0.907
		c-3.195,0.69-7.297,2.106-12.27,4.247c-3.228,1.529-6.17,3.038-8.833,4.522l-2.038,5.69c7.22-2.944,14.608-4.08,14.608-4.08
		l6.463-0.614l7.006-0.363c5.772,0.145,11.834,0.835,18.188,2.033c6.134,1.162,10.781,2.614,14.011,4.32
		c1.38,0.762,2.505,1.561,3.339,2.396c1.707,1.707,2.324,3.413,1.853,5.118l-0.691,1.852c-0.217,0.653-0.254,1.161-0.145,1.561
		c0.58,1.67,2.722,3.957,6.389,6.861c3.303,2.614,6.243,4.538,8.893,5.808c1.562,0.69,2.468,0.762,2.722,0.218
		C120.603,104.42,119.914,101.806,118.026,98.103z"/>
	<radialGradient id="XMLID_5_" cx="76.1518" cy="63.5669" r="28.996" gradientUnits="userSpaceOnUse">
		<stop  offset="0.2562" style="stop-color:#404040"/>
		<stop  offset="0.3737" style="stop-color:#303030"/>
		<stop  offset="0.5578" style="stop-color:#1F1F1F"/>
		<stop  offset="0.7577" style="stop-color:#151515"/>
		<stop  offset="1" style="stop-color:#121212"/>
	</radialGradient>
	<path id="XMLID_71_" opacity="0.58" fill-rule="evenodd" clip-rule="evenodd" fill="url(#XMLID_5_)" d="M79.765,51.638
		c4.32,2.359,8.385,3.013,12.125,1.887c2.976-0.871,6.135-3.012,9.475-6.425c3.23-3.231,4.537-5.735,3.957-7.514
		c-0.98-2.941-3.339-4.356-7.079-4.319c-1.707,0.035-3.957,0.871-6.679,2.431c-2.142,1.234-3.704,2.324-4.61,3.231
		c-8.241-3.703-14.122-5.881-17.68-6.499c-13.431-2.396-25.047,1.889-34.813,12.814c-5.264,5.99-7.785,9.548-7.151,10.492
		c0.846,1.259,3.122,0.254,3.122,0.254c0.726-0.182,1.597-0.472,2.65-0.799c5.736-2.033,8.531-3.486,8.349-4.356l0.181-3.122
		c0.182-2.542,1.888-4.865,5.046-6.97c5.264-3.557,10.382-4.21,15.392-1.96c1.597,0.726,3.812,2.07,6.643,3.993
		c3.304,2.287,5.735,3.849,7.224,4.683C76.062,49.641,79.765,51.638,79.765,51.638z M93.609,40.727
		c1.813-0.871,3.481-1.439,5.042-1.703c1.813-0.265,3.083-0.113,3.772,0.53c0.617,0.53,0.617,1.097,0.072,1.665
		c-1.124,1.173-3.119,1.778-6.056,1.892c-2.648,0.114-4.28-0.114-4.969-0.682C91.106,42.164,91.832,41.596,93.609,40.727z"/>
	<linearGradient id="XMLID_6_" gradientUnits="userSpaceOnUse" x1="29.9629" y1="56.8703" x2="40.1244" y2="44.784">
		<stop  offset="0" style="stop-color:#292929"/>
		<stop  offset="0.7545" style="stop-color:#7A7A7A"/>
		<stop  offset="0.9878" style="stop-color:#404040"/>
	</linearGradient>
	<path id="XMLID_28_" opacity="0.87" fill-rule="evenodd" clip-rule="evenodd" fill="url(#XMLID_6_)" d="M39.865,42.935
		c0.448,0.307-1.95,3.098-1.95,4.018c0,0.92,0.153,4.602-0.844,5.446c-0.997,0.844-3.222,2.685-5.063,3.452
		c-1.841,0.767-6.788,3.021-2.307-2.57C35.131,46.507,38.947,42.306,39.865,42.935z"/>
	<linearGradient id="XMLID_7_" gradientUnits="userSpaceOnUse" x1="64.0845" y1="34.7174" x2="94.5778" y2="46.0687">
		<stop  offset="0" style="stop-color:#7A7A7A"/>
		<stop  offset="0.0408" style="stop-color:#747474"/>
		<stop  offset="0.3306" style="stop-color:#4D4D4D"/>
		<stop  offset="0.5967" style="stop-color:#313131"/>
		<stop  offset="0.8285" style="stop-color:#202020"/>
		<stop  offset="1" style="stop-color:#1A1A1A"/>
	</linearGradient>
	<path id="XMLID_27_" fill-rule="evenodd" clip-rule="evenodd" fill="url(#XMLID_7_)" d="M62.455,33.971
		c-0.322-0.033,8.378,3.548,14.81,7.792c5.21,3.438,17.731,4.781,17.284,3.311C71.698,33.019,65.383,34.271,62.455,33.971z"/>
	<linearGradient id="XMLID_8_" gradientUnits="userSpaceOnUse" x1="106.217" y1="89.5167" x2="119.9373" y2="101.8837">
		<stop  offset="0" style="stop-color:#1A1A1A"/>
		<stop  offset="0.4167" style="stop-color:#1B1B1B"/>
		<stop  offset="0.5807" style="stop-color:#222222"/>
		<stop  offset="0.7002" style="stop-color:#2F2F2F"/>
		<stop  offset="0.7973" style="stop-color:#404040"/>
		<stop  offset="0.867" style="stop-color:#525252"/>
	</linearGradient>
	<path id="XMLID_26_" fill-rule="evenodd" clip-rule="evenodd" fill="url(#XMLID_8_)" d="M107.742,86.149
		c0,0,4.065,5.497,4.065,6.622s-0.077,7.082,1.15,8.105c1.227,1.023,5.308,4.423,5.83,2.761
		C119.493,101.391,108.663,84.411,107.742,86.149z"/>
	<linearGradient id="XMLID_9_" gradientUnits="userSpaceOnUse" x1="73.2131" y1="17.2503" x2="76.8507" y2="20.9846">
		<stop  offset="0" style="stop-color:#D1D1D1"/>
		<stop  offset="1" style="stop-color:#787878"/>
	</linearGradient>
	<path id="XMLID_25_" fill-rule="evenodd" clip-rule="evenodd" fill="url(#XMLID_9_)" d="M81.023,17.729c0,0-1.1-0.256-2.071,0.358
		c-0.972,0.614-5.114,4.551-5.983,5.011c-0.869,0.46-2.403,1.432-2.097-0.972c0.307-2.403,4.012-7.701,8.028-6.5
		C81.995,16.553,81.023,17.729,81.023,17.729z"/>
	<linearGradient id="XMLID_10_" gradientUnits="userSpaceOnUse" x1="17.9758" y1="99.3636" x2="22.4625" y2="91.2145">
		<stop  offset="0" style="stop-color:#1A1A1A"/>
		<stop  offset="0.2824" style="stop-color:#1E1E1E"/>
		<stop  offset="0.6009" style="stop-color:#2C2C2C"/>
		<stop  offset="0.9358" style="stop-color:#424242"/>
		<stop  offset="1" style="stop-color:#474747"/>
	</linearGradient>
	<path id="XMLID_24_" fill-rule="evenodd" clip-rule="evenodd" fill="url(#XMLID_10_)" d="M21.418,90.381
		c0,0-1.346,3.218-1.605,4.781c-0.345,2.084,1.132,1.843,1.342,2.527c0.217,0.707-1.074,2.689-2.876,2.765
		c-1.803,0.077-3.317-0.856-0.044-6.149C20.449,90.724,21.456,89.921,21.418,90.381z"/>
	<linearGradient id="XMLID_11_" gradientUnits="userSpaceOnUse" x1="73.2131" y1="17.2503" x2="76.8507" y2="20.9846">
		<stop  offset="0" style="stop-color:#D1D1D1"/>
		<stop  offset="1" style="stop-color:#787878"/>
	</linearGradient>
	<path id="XMLID_23_" fill-rule="evenodd" clip-rule="evenodd" fill="url(#XMLID_11_)" d="M81.023,17.729c0,0-1.1-0.256-2.071,0.358
		c-0.972,0.614-5.114,4.551-5.983,5.011c-0.869,0.46-2.403,1.432-2.097-0.972c0.307-2.403,4.012-7.701,8.028-6.5
		C81.995,16.553,81.023,17.729,81.023,17.729z"/>
	<radialGradient id="XMLID_12_" cx="70.1833" cy="57.95" r="12.5738" gradientUnits="userSpaceOnUse">
		<stop  offset="0" style="stop-color:#424242"/>
		<stop  offset="0.067" style="stop-color:#3D3D3D"/>
		<stop  offset="0.41" style="stop-color:#252525"/>
		<stop  offset="0.7294" style="stop-color:#171717"/>
		<stop  offset="1" style="stop-color:#121212"/>
	</radialGradient>
	<path id="XMLID_22_" fill-rule="evenodd" clip-rule="evenodd" fill="url(#XMLID_12_)" d="M67.313,65.505l0.073-0.472l5.591-6.679
		c0.108-0.109,0.217-0.254,0.326-0.363c2.359-2.722,4.538-4.865,6.462-6.353c1.383,0.755-4.426-2.502-3.849-2.179
		c0.146,0.182,0.109,0.327-0.145,0.436c-2.941,2.433-5.735,5.155-8.458,8.096c-1.271,1.343-2.541,2.759-3.739,4.247l-3.013,4.174
		C59.107,66.726,67.313,65.505,67.313,65.505z"/>
	<radialGradient id="XMLID_13_" cx="39.2126" cy="92.1626" r="12.0597" gradientUnits="userSpaceOnUse">
		<stop  offset="0" style="stop-color:#404040"/>
		<stop  offset="1" style="stop-color:#121212"/>
	</radialGradient>
	<path id="XMLID_21_" fill-rule="evenodd" clip-rule="evenodd" fill="url(#XMLID_13_)" d="M52.029,76.791
		c0,0-0.98,2.051-9.511,9.895c-5.507,5.063-14.329,10.176-18.347,10.489c-0.214,1.272-0.196,2.484,0.074,3.609
		c2.461-0.532,5.322-1.507,8.401-3.008c5.3-2.613,10.709-6.389,16.263-11.362c1.38-1.307,2.795-2.722,4.247-4.247
		c1.706-1.851,3.485-3.848,5.337-5.989L52.029,76.791z"/>
	<radialGradient id="XMLID_14_" cx="68.9768" cy="62.7807" r="30.7204" gradientUnits="userSpaceOnUse">
		<stop  offset="0" style="stop-color:#969696"/>
		<stop  offset="0.2547" style="stop-color:#787878"/>
		<stop  offset="0.5501" style="stop-color:#5C5C5C"/>
		<stop  offset="0.8087" style="stop-color:#4B4B4B"/>
		<stop  offset="1" style="stop-color:#454545"/>
	</radialGradient>
	<path id="XMLID_20_" fill-rule="evenodd" clip-rule="evenodd" fill="url(#XMLID_14_)" d="M49.242,72.752
		c0,0,11.087-1.841,20.015-1.739c8.928,0.102,20.485,2.966,21.099,2.761c0.614-0.205-7.936-7.568-21.099-7.261
		C56.094,66.82,46.583,72.445,49.242,72.752z"/>
</g>
</svg>
